<svg height="511pt" viewBox="0 -8 511.99987 511" width="511pt" xmlns="http://www.w3.org/2000/svg"><g fill="#ffc843"><path d="m125.195312 313.996094h-116.539062v-50.910156h79.320312zm0 0"/><path d="m89.890625 486.734375h100.304687v-50.917969h-181.539062v50.917969h37.597656"/><path d="m8.65625 348.109375h310.710938v50.90625h-310.710938zm0 0"/></g><path d="m125.195312 313.996094h-39.769531c-12.527343-15.402344-22.648437-32.453125-30.175781-50.910156h32.726562zm0 0" fill="#ffb400"/><path d="m319.367188 348.109375v26.179687c-24.289063 9.835938-49.9375 14.824219-76.257813 14.824219-26.335937 0-52.019531-5-76.332031-14.847656-16.53125-6.707031-31.953125-15.457031-46.074219-26.15625zm0 0" fill="#ffb400"/><path d="m368.625 61.007812c69.316406 69.246094 69.316406 181.519532 0 250.765626-69.320312 69.246093-181.710938 69.246093-251.027344 0-69.320312-69.246094-69.320312-181.519532 0-250.765626 69.316406-69.25 181.707032-69.25 251.027344 0zm0 0" fill="#fff"/><path d="m338.578125 90.070312c52.632813 52.578126 52.632813 137.824219 0 190.402344s-137.964844 52.578125-190.597656 0c-52.632813-52.578125-52.632813-137.824218 0-190.402344 52.632812-52.578124 137.964843-52.578124 190.597656 0zm0 0" fill="#76ffd9"/><path d="m334.109375 284.730469c-52.882813 48.277343-134.960937 46.859375-186.125-4.261719-52.640625-52.570312-52.640625-137.824219 0-190.394531 10.804687-10.796875 22.996094-19.371094 35.992187-25.746094-1.5 1.375-2.988281 2.792969-4.441406 4.25-52.632812 52.582031-52.632812 137.824219 0 190.410156 41.8125 41.765625 104.277344 50.355469 154.574219 25.742188zm0 0" fill="#5de0bf"/><path d="m418.996094 336.574219-25.386719 25.386719-38.222656-38.210938c4.558593-3.730469 8.980469-7.722656 13.242187-11.972656 4.316406-4.316406 8.367188-8.796875 12.132813-13.425782zm0 0" fill="#e1eaf8"/><path d="m503.335938 400.253906-46.0625 46.058594-74.007813-74.007812 24.554687-24.554688 21.507813-21.519531zm0 0" fill="#e1eaf8"/><path d="m503.335938 400.253906-21.507813 21.503906-74.007813-74.007812 21.507813-21.519531zm0 0" fill="#e1eaf8"/><path d="m243.277344 79.800781s.003906 0 0 0c-28.144532 0-54.609375 10.972657-74.511719 30.894531-3.378906 3.382813-3.375 8.867188.007813 12.246094 3.382812 3.378906 8.863281 3.375 12.242187-.007812 16.632813-16.648438 38.746094-25.816406 62.261719-25.816406 23.519531 0 45.628906 9.167968 62.261718 25.816406 1.691407 1.695312 3.90625 2.539062 6.125 2.539062 2.214844 0 4.429688-.84375 6.121094-2.53125 3.382813-3.378906 3.386719-8.863281.003906-12.246094-19.902343-19.921874-46.363281-30.894531-74.511718-30.894531zm0 0" fill="#fff"/><path d="m190.195312 427.15625h-181.539062c-4.78125 0-8.65625 3.878906-8.65625 8.660156v50.917969c0 4.78125 3.875 8.65625 8.65625 8.65625h37.597656c4.78125 0 8.660156-3.875 8.660156-8.65625s-3.878906-8.660156-8.660156-8.660156h-28.9375v-33.601563h164.21875v33.601563h-79.214844c-4.78125 0-8.65625 3.878906-8.65625 8.660156s3.875 8.65625 8.65625 8.65625h87.875c4.78125 0 8.65625-3.875 8.65625-8.65625v-50.917969c0-4.78125-3.875-8.660156-8.65625-8.660156zm0 0" fill="#434c54"/><path d="m509.464844 394.125-74.011719-74.011719c-3.378906-3.382812-8.863281-3.382812-12.242187 0l-4.21875 4.214844-26.707032-26.699219c43.472656-58.269531 49.492188-138.117187 13-202.648437-2.355468-4.164063-7.636718-5.628907-11.796875-3.273438-4.164062 2.351563-5.628906 7.632813-3.277343 11.796875 34.707031 61.378906 26.996093 138.035156-17.828126 191.371094-.148437.179688-.292968.355469-.441406.53125-.578125.683594-1.167968 1.359375-1.757812 2.035156-.269532.304688-.539063.613282-.808594.917969-.539062.605469-1.082031 1.207031-1.628906 1.808594-.363282.394531-.726563.785156-1.09375 1.179687-.507813.542969-1.011719 1.085938-1.527344 1.625-.394531.410156-.796875.816406-1.195312 1.222656-.472657.488282-.941407.972657-1.421876 1.453126-2.050781 2.050781-4.144531 4.035156-6.273437 5.957031-.105469.097656-.214844.1875-.316406.28125-31.988281 28.726562-72.390625 43.09375-112.804688 43.085937-43.234375-.003906-86.484375-16.445312-119.394531-49.324218-31.894531-31.855469-49.457031-74.207032-49.457031-119.257813s17.5625-87.402344 49.453125-119.257813c65.832031-65.769531 172.953125-65.769531 238.789062 0 3.386719 3.378907 8.867188 3.375 12.246094-.007812s3.375-8.863281-.007812-12.242188c-72.582032-72.511718-190.683594-72.507812-263.265626 0-35.164062 35.125-54.527343 81.828126-54.527343 131.507813 0 23.660156 4.402343 46.644531 12.804687 68.03125h-61.097656c-4.78125 0-8.65625 3.875-8.65625 8.65625v50.917969c0 4.78125 3.875 8.660156 8.65625 8.660156h107.78125c6.644531 6.167969 13.628906 11.773438 20.898438 16.789062h-128.679688c-4.78125 0-8.65625 3.878907-8.65625 8.660157v50.917969c0 4.78125 3.875 8.65625 8.65625 8.65625h310.707031c4.78125 0 8.660157-3.875 8.660157-8.65625v-47.125c9.234374-4.722657 18.152343-10.261719 26.648437-16.625l26.691406 26.6875-4.21875 4.21875c-1.625 1.621093-2.535156 3.824218-2.535156 6.121093s.910156 4.496094 2.535156 6.121094l74.011719 74.011719c1.625 1.621094 3.824219 2.535156 6.121094 2.535156s4.5-.914062 6.125-2.535156l46.0625-46.066406c3.378906-3.378907 3.378906-8.863282 0-12.242188zm-492.148438-122.386719h60.304688c6.160156 11.890625 13.644531 23.152344 22.375 33.601563h-82.679688zm293.390625 118.625h-293.390625v-33.597656h146.683594c1.109375 0 2.164062-.21875 3.136719-.59375 24.105469 10.730469 50.035156 16.109375 75.972656 16.109375 22.957031 0 45.910156-4.21875 67.597656-12.625zm57.394531-66.144531c.882813-.796875 1.75-1.613281 2.617188-2.429688.210938-.195312.417969-.382812.625-.578124 1.148438-1.089844 2.285156-2.195313 3.40625-3.308594.441406-.441406.871094-.894532 1.308594-1.339844.53125-.542969 1.066406-1.085938 1.589844-1.632812.523437-.546876 1.035156-1.097657 1.550781-1.648438.441406-.472656.886719-.949219 1.324219-1.425781.238281-.257813.484374-.515625.71875-.777344l25.507812 25.5-13.140625 13.140625zm89.175782 109.847656-61.765625-61.765625 4.191406-4.191406c.007813-.011719.019531-.019531.027344-.027344l25.386719-25.386719.023437-.023437 4.191406-4.191406 61.765625 61.765625zm0 0" fill="#434c54"/></svg>