<svg height="512pt" viewBox="-102 0 512 512" width="512pt" xmlns="http://www.w3.org/2000/svg"><path d="m299.570312 34.785156v442.429688c0 15.070312-12.222656 27.285156-27.285156 27.285156h-237.5c-15.070312 0-27.285156-12.214844-27.285156-27.285156v-442.429688c0-15.070312 12.214844-27.285156 27.285156-27.285156h237.5c15.0625 0 27.285156 12.214844 27.285156 27.285156zm0 0" fill="#fff"/><path d="m299.570312 34.785156v52.433594h-292.070312v-52.433594c0-15.070312 12.214844-27.285156 27.285156-27.285156h237.5c15.0625 0 27.285156 12.214844 27.285156 27.285156zm0 0" fill="#92e0c0"/><path d="m299.570312 34.785156v38.230469h-292.070312v-38.230469c0-15.070312 12.214844-27.285156 27.285156-27.285156h237.5c15.0625 0 27.285156 12.214844 27.285156 27.285156zm0 0" fill="#abffdb"/><path d="m299.570312 423.921875v53.292969c0 15.070312-12.222656 27.285156-27.285156 27.285156h-237.5c-15.070312 0-27.285156-12.214844-27.285156-27.285156v-53.292969zm0 0" fill="#92e0c0"/><path d="m299.570312 438.121094v39.09375c0 15.070312-12.222656 27.285156-27.285156 27.285156h-237.5c-15.070312 0-27.285156-12.214844-27.285156-27.285156v-39.09375zm0 0" fill="#abffdb"/><path d="m140.25 438.121094h-95.25v-293.65625c0-4.503906 3.652344-8.15625 8.15625-8.15625h78.9375c4.503906 0 8.15625 3.652344 8.15625 8.15625zm0 0" fill="#ffc850"/><path d="m45 423.921875h95.25v14.199219h-95.25zm0 0" fill="#f9b428"/><path d="m256.054688 225.761719h-73.449219c-4.503907 0-8.15625-3.652344-8.15625-8.15625v-73.453125c0-4.503906 3.652343-8.15625 8.15625-8.15625h73.449219c4.507812 0 8.160156 3.652344 8.160156 8.15625v73.453125c0 4.503906-3.652344 8.15625-8.160156 8.15625zm0 0" fill="#abffdb"/><path d="m256.105469 292.199219h-73.546875c-4.480469 0-8.109375-3.632813-8.109375-8.109375v-19.519532c0-4.476562 3.628906-8.105468 8.109375-8.105468h73.546875c4.476562 0 8.109375 3.628906 8.109375 8.105468v19.519532c0 4.476562-3.632813 8.109375-8.109375 8.109375zm0 0" fill="#abffdb"/><path d="m54.558594 497h-19.773438c-10.910156 0-19.785156-8.875-19.785156-19.785156v-117.574219c0-4.140625-3.359375-7.5-7.5-7.5s-7.5 3.359375-7.5 7.5v117.574219c0 19.179687 15.605469 34.785156 34.785156 34.785156h19.773438c4.144531 0 7.5-3.359375 7.5-7.5s-3.355469-7.5-7.5-7.5zm0 0" fill="#474d54"/><path d="m272.285156 0h-237.5c-19.179687 0-34.785156 15.605469-34.785156 34.785156v294.238282c0 4.140624 3.359375 7.5 7.5 7.5s7.5-3.359376 7.5-7.5v-294.238282c0-10.910156 8.875-19.785156 19.785156-19.785156h237.5c10.910156 0 19.785156 8.875 19.785156 19.785156v442.429688c0 10.910156-8.875 19.785156-19.785156 19.785156h-187.105468c-4.144532 0-7.5 3.359375-7.5 7.5s3.355468 7.5 7.5 7.5h187.105468c19.183594 0 34.785156-15.605469 34.785156-34.785156v-442.429688c0-19.179687-15.601562-34.785156-34.785156-34.785156zm0 0" fill="#474d54"/><g fill="#48c397"><path d="m164.328125 32.757812h-75.933594c-4.140625 0-7.5 3.359376-7.5 7.5 0 4.140626 3.359375 7.5 7.5 7.5h75.933594c4.144531 0 7.5-3.359374 7.5-7.5 0-4.140624-3.355469-7.5-7.5-7.5zm0 0"/><path d="m218.675781 32c-4.140625 0-7.5 3.359375-7.5 7.5v1.519531c0 4.140625 3.359375 7.5 7.5 7.5s7.5-3.359375 7.5-7.5v-1.519531c0-4.144531-3.359375-7.5-7.5-7.5zm0 0"/><path d="m197.8125 32c-4.140625 0-7.5 3.359375-7.5 7.5v1.519531c0 4.140625 3.359375 7.5 7.5 7.5 4.144531 0 7.5-3.359375 7.5-7.5v-1.519531c0-4.144531-3.355469-7.5-7.5-7.5zm0 0"/><path d="m175.015625 478.8125c4.144531 0 7.5-3.359375 7.5-7.5 0-4.144531-3.355469-7.5-7.5-7.5h-42.960937c-4.144532 0-7.5 3.355469-7.5 7.5 0 4.140625 3.355468 7.5 7.5 7.5zm0 0"/></g><path d="m174.449219 331.589844h89.765625c4.140625 0 7.5-3.355469 7.5-7.5 0-4.140625-3.359375-7.5-7.5-7.5h-89.765625c-4.144531 0-7.5 3.359375-7.5 7.5 0 4.144531 3.355469 7.5 7.5 7.5zm0 0" fill="#abb0b7"/><path d="m174.449219 358.9375h89.765625c4.140625 0 7.5-3.359375 7.5-7.5 0-4.144531-3.359375-7.5-7.5-7.5h-89.765625c-4.144531 0-7.5 3.355469-7.5 7.5 0 4.140625 3.355469 7.5 7.5 7.5zm0 0" fill="#abb0b7"/><path d="m174.449219 386.277344h89.765625c4.140625 0 7.5-3.355469 7.5-7.5 0-4.140625-3.359375-7.5-7.5-7.5h-89.765625c-4.144531 0-7.5 3.359375-7.5 7.5 0 4.144531 3.355469 7.5 7.5 7.5zm0 0" fill="#abb0b7"/><path d="m174.449219 413.625h89.765625c4.140625 0 7.5-3.359375 7.5-7.5 0-4.144531-3.359375-7.5-7.5-7.5h-89.765625c-4.144531 0-7.5 3.355469-7.5 7.5 0 4.140625 3.355469 7.5 7.5 7.5zm0 0" fill="#abb0b7"/><path d="m197.589844 206.464844c1.039062.496094 2.132812.726562 3.210937.726562 2.804688 0 5.496094-1.582031 6.78125-4.28125l1.605469-3.382812h18.976562l1.605469 3.382812c1.777344 3.738282 6.25 5.332032 9.992188 3.554688 3.742187-1.777344 5.335937-6.25 3.558593-9.992188l-17.871093-37.621094c-1.242188-2.613281-3.878907-4.28125-6.773438-4.28125-2.898437 0-5.53125 1.667969-6.773437 4.28125l-17.871094 37.621094c-1.777344 3.742188-.183594 8.214844 3.558594 9.992188zm23.449218-21.9375h-4.726562l2.363281-4.976563zm0 0" fill="#48c397"/></svg>