<svg height="512pt" viewBox="0 -25 512.001 512" width="512pt" xmlns="http://www.w3.org/2000/svg"><path d="m348.769531 455h-185.539062c-7.488281 0-10.714844-9.523438-4.75-14.058594 14.546875-11.046875 24.066406-24.847656 30.285156-38.085937 11.355469-24.125 11.75-46.316407 11.75-46.316407h110.96875s.390625 22.191407 11.75 46.316407c6.214844 13.238281 15.738281 27.039062 30.285156 38.085937 5.960938 4.535156 2.738281 14.058594-4.75 14.058594zm0 0" fill="#abffdb"/><path d="m319.304688 393.488281c-7.519532-20.207031-7.820313-36.945312-7.820313-36.945312h-110.96875s-.300781 16.738281-7.820313 36.945312zm0 0" fill="#92e0c0"/><path d="m504.492188 44.332031v269.019531h-496.992188v-269.019531c0-20.351562 16.480469-36.832031 36.8125-36.832031h423.367188c20.332031 0 36.8125 16.480469 36.8125 36.832031zm0 0" fill="#abffdb"/><path d="m7.5 286.726562h496.992188v26.625h-496.992188zm0 0" fill="#92e0c0"/><path d="m488.207031 375.484375h-464.414062c-9 0-16.292969-7.292969-16.292969-16.289063v-52.566406h497v52.566406c0 8.996094-7.292969 16.289063-16.292969 16.289063zm0 0" fill="#fff"/><path d="m287.957031 181.457031c1.738281 2.390625.503907 5.765625-2.363281 6.492188-6.382812 1.613281-15.226562 6.371093-15.605469 20.335937-.011719.320313-.011719.636719-.011719.957032l1.097657 33.527343h-31.816407l.4375-33.527343c0-.320313 0-.636719-.015624-.957032-.378907-13.964844-9.21875-18.722656-15.601563-20.335937-2.867187-.726563-4.105469-4.101563-2.363281-6.492188l33.121094-45.539062zm0 0" fill="#fff"/><path d="m239.257812 242.769531.433594-33.527343c0-.320313 0-.636719-.011718-.957032h30.308593c-.011719.320313-.011719.636719-.011719.957032l1.097657 33.527343zm0 0" fill="#dae0ea"/><path d="m284.058594 233.960938v72.671874h-56.117188v-72.671874c0-3.9375 3.191406-7.128907 7.128906-7.128907h41.859376c3.9375 0 7.128906 3.191407 7.128906 7.128907zm0 0" fill="#ffc850"/><path d="m227.941406 286.726562h56.117188v19.90625h-56.117188zm0 0" fill="#f9b428"/><path d="m267.171875 341.058594c0 6.167968-5 11.171875-11.171875 11.171875s-11.171875-5.003907-11.171875-11.171875c0-6.171875 5-11.175782 11.171875-11.175782s11.171875 5.003907 11.171875 11.175782zm0 0" fill="#ffc850"/><g fill="#474d54"><path d="m467.679688 0h-52.039063c-4.140625 0-7.5 3.359375-7.5 7.5s3.359375 7.5 7.5 7.5h52.039063c16.167968 0 29.320312 13.152344 29.320312 29.320312v200.621094c0 4.140625 3.359375 7.5 7.5 7.5s7.5-3.359375 7.5-7.5v-200.617187c0-24.441407-19.882812-44.324219-44.320312-44.324219zm0 0"/><path d="m78.359375 367.984375h-54.566406c-4.847657 0-8.792969-3.941406-8.792969-8.789063v-314.871093c0-16.167969 13.152344-29.324219 29.320312-29.324219h340.703126c4.140624 0 7.5-3.355469 7.5-7.5 0-4.140625-3.359376-7.5-7.5-7.5h-340.703126c-24.4375 0-44.320312 19.882812-44.320312 44.324219v314.871093c0 13.117188 10.671875 23.789063 23.792969 23.789063h54.5625c4.144531 0 7.5-3.355469 7.5-7.5 0-4.140625-3.355469-7.5-7.496094-7.5zm0 0"/><path d="m504.5 268.058594c-4.140625 0-7.5 3.355468-7.5 7.5v83.636718c0 4.847657-3.945312 8.789063-8.792969 8.789063h-379.230469c-4.140624 0-7.5 3.359375-7.5 7.5 0 4.144531 3.359376 7.5 7.5 7.5h79.328126c-4.863282 16.480469-14.652344 37.039063-34.351563 51.988281-5.324219 4.039063-7.382813 10.742188-5.253906 17.078125 2.136719 6.34375 7.835937 10.441407 14.527343 10.441407h185.546876c6.691406 0 12.394531-4.097657 14.527343-10.441407 2.132813-6.335937.070313-13.039062-5.25-17.078125-19.660156-14.917968-29.464843-35.40625-34.355469-51.988281h164.515626c13.117187 0 23.789062-10.671875 23.789062-23.789063v-83.636718c0-4.144532-3.359375-7.5-7.5-7.5zm-155.519531 178.863281c.09375.074219.128906.121094.128906.121094.03125.105469-.058594.367187-.144531.425781 0 0-.054688.023438-.191406.023438h-185.546876c-.132812 0-.1875-.019532-.1875-.019532-.089843-.0625-.179687-.324218-.152343-.421875 0 0 .027343-.050781.132812-.128906 24.625-18.6875 35.789063-44.558594 40.851563-63.9375h104.257812c5.097656 19.527344 16.289063 45.300781 40.851563 63.9375zm0 0"/></g><path d="m364.765625 116.75h-217.53125c-3.109375-8.929688-11.605469-15.355469-21.582031-15.355469-12.605469 0-22.855469 10.253907-22.855469 22.855469s10.253906 22.851562 22.855469 22.851562c9.972656 0 18.472656-6.425781 21.582031-15.351562h58.625c-24.101563 15.851562-40.300781 42.773438-41.300781 73.476562-8.957032 3.097657-15.410156 11.609376-15.410156 21.605469 0 12.601563 10.253906 22.851563 22.855468 22.851563 12.601563 0 22.855469-10.25 22.855469-22.851563 0-9.949219-6.390625-18.429687-15.28125-21.5625 1.472656-38.230469 31.117187-69.359375 68.726563-73.136719l12.914062-.1875c38.773438 2.628907 69.699219 34.261719 71.203125 73.324219-8.890625 3.132813-15.28125 11.613281-15.28125 21.558594 0 12.605469 10.253906 22.855469 22.855469 22.855469 12.601562 0 22.855468-10.253906 22.855468-22.855469 0-9.996094-6.453124-18.507813-15.410156-21.601563-1.003906-30.703124-17.203125-57.628906-41.304687-73.480468h58.625c3.109375 8.929687 11.609375 15.355468 21.585937 15.355468 12.601563 0 22.855469-10.253906 22.855469-22.855468 0-12.601563-10.253906-22.855469-22.855469-22.855469-9.976562.003906-18.472656 6.429687-21.582031 15.359375zm-239.113281 15.355469c-4.332032 0-7.855469-3.523438-7.855469-7.855469s3.523437-7.855469 7.855469-7.855469c4.332031 0 7.855468 3.523438 7.855468 7.855469s-3.523437 7.855469-7.855468 7.855469zm54.207031 94.726562c0 4.332031-3.523437 7.851563-7.855469 7.851563-4.332031 0-7.855468-3.523438-7.855468-7.851563 0-4.332031 3.523437-7.855469 7.855468-7.855469 4.332032 0 7.855469 3.523438 7.855469 7.855469zm160.136719-7.855469c4.332031 0 7.855468 3.523438 7.855468 7.855469 0 4.328125-3.523437 7.851563-7.855468 7.851563-4.332032 0-7.855469-3.523438-7.855469-7.851563 0-4.332031 3.523437-7.855469 7.855469-7.855469zm54.207031-94.726562c0 4.332031-3.523437 7.851562-7.855469 7.851562-4.328125 0-7.855468-3.523437-7.855468-7.851562 0-4.332031 3.527343-7.855469 7.855468-7.855469 4.332032 0 7.855469 3.523438 7.855469 7.855469zm0 0" fill="#979ba0"/><path d="m209.863281 64.210938v1.679687c0 4.144531 3.359375 7.5 7.5 7.5 4.144531 0 7.5-3.355469 7.5-7.5v-1.679687c0-4.140626-3.355469-7.5-7.5-7.5-4.140625 0-7.5 3.359374-7.5 7.5zm0 0" fill="#afb5bc"/><path d="m248.5 64.210938v1.679687c0 4.144531 3.359375 7.5 7.5 7.5s7.5-3.355469 7.5-7.5v-1.679687c0-4.140626-3.359375-7.5-7.5-7.5s-7.5 3.359374-7.5 7.5zm0 0" fill="#afb5bc"/><path d="m287.136719 64.210938v1.679687c0 4.144531 3.355469 7.5 7.5 7.5 4.140625 0 7.5-3.355469 7.5-7.5v-1.679687c0-4.140626-3.359375-7.5-7.5-7.5-4.144531 0-7.5 3.359374-7.5 7.5zm0 0" fill="#afb5bc"/></svg>