<svg height="512pt" viewBox="-3 0 512 512.00002" width="512pt" xmlns="http://www.w3.org/2000/svg"><path d="m496.78125 256c0 136.835938-109.367188 247.765625-244.273438 247.765625-134.914062 0-244.269531-110.929687-244.269531-247.765625s109.355469-247.761719 244.269531-247.761719c46.429688 0 89.851563 13.140625 126.816407 35.953125 33.867187 20.914063 62.335937 49.953125 82.742187 84.449219 22.046875 37.214844 34.714844 80.789063 34.714844 127.359375zm0 0" fill="#ffc843"/><path d="m462.066406 128.640625-7.386718 7.453125c-4.535157 4.566406-10.703126 7.136719-17.148438 7.136719h-49.226562c-6.414063 0-12.550782-2.539063-17.085938-7.070313-4.523438-4.535156-7.070312-10.671875-7.070312-17.082031v-49.636719c0-6.367187 2.515624-12.480468 7.007812-17.003906l8.167969-8.246094c33.867187 20.914063 62.335937 49.953125 82.742187 84.449219zm0 0" fill="#ffa816"/><path d="m463.609375 256c0-118.253906-94.515625-214.121094-211.105469-214.121094-116.585937 0-211.101562 95.867188-211.101562 214.121094 0 118.257812 94.515625 214.121094 211.101562 214.121094 116.589844 0 211.105469-95.863282 211.105469-214.121094zm0 0" fill="#ffb400"/><path d="m438.300781 256c0-104.078125-83.183593-188.453125-185.796875-188.453125-102.609375 0-185.792968 84.375-185.792968 188.453125 0 104.082031 83.183593 188.453125 185.792968 188.453125 102.613282 0 185.796875-84.371094 185.796875-188.453125zm0 0" fill="#fff"/><path d="m401.394531 256c0-83.40625-66.660156-151.019531-148.890625-151.019531-82.230468 0-148.890625 67.613281-148.890625 151.019531s66.660157 151.019531 148.890625 151.019531c82.230469 0 148.890625-67.613281 148.890625-151.019531zm0 0" fill="#fff"/><path d="m377.96875 256c0-70.28125-56.171875-127.257812-125.464844-127.257812-69.289062 0-125.460937 56.976562-125.460937 127.257812s56.171875 127.257812 125.460937 127.257812c69.292969 0 125.464844-56.976562 125.464844-127.257812zm0 0" fill="#ffc843"/><path d="m332.597656 256c0-44.867188-35.859375-81.238281-80.09375-81.238281s-80.089844 36.371093-80.089844 81.238281 35.855469 81.238281 80.089844 81.238281 80.09375-36.371093 80.09375-81.238281zm0 0" fill="#ffb400"/><path d="m308.230469 256c0-31.21875-24.949219-56.523438-55.726563-56.523438s-55.726562 25.304688-55.726562 56.523438 24.949218 56.523438 55.726562 56.523438 55.726563-25.304688 55.726563-56.523438zm0 0" fill="#fff"/><path d="m388.300781 119.082031h49.234375l58.125-58.609375h-49.128906l-.101562-.101562v-49.535156l-58.125 58.609374zm0 0" fill="#76ffd9"/><path d="m459.214844 108.910156 42.292968-42.640625c2.339844-2.359375 3.035157-5.894531 1.753907-8.964843-1.277344-3.066407-4.277344-5.066407-7.601563-5.066407h-40.996094v-41.402343c0-3.335938-2.011718-6.34375-5.097656-7.613282-3.085937-1.273437-6.632812-.554687-8.980468 1.8125l-41.863282 42.210938c-42.425781-30.679688-93.058594-47.246094-146.214844-47.246094-67.472656 0-130.894531 26.644531-178.59375 75.023438-47.664062 48.347656-73.914062 112.617187-73.914062 180.976562s26.25 132.628906 73.914062 180.976562c47.699219 48.378907 111.121094 75.023438 178.589844 75.023438s130.894532-26.644531 178.589844-75.023438c47.667969-48.347656 73.917969-112.621093 73.917969-180.976562 0-53.410156-16.050781-104.3125-45.796875-147.089844zm-62.679688-36.074218 41.660156-42.007813v29.542969c0 2.167968.855469 4.25 2.382813 5.789062l.101563.105469c1.546874 1.5625 3.652343 2.441406 5.851562 2.441406h29.367188l-41.792969 42.140625h-37.570313zm-144.027344 422.695312c-130.152343 0-236.039062-107.453125-236.039062-239.53125s105.882812-239.53125 236.039062-239.53125c49.890626 0 96.199219 15.8125 134.359376 42.730469l-4.410157 4.445312c-1.527343 1.542969-2.386719 3.628907-2.386719 5.800781v38.417969l-.132812 8.019531-133.277344 134.320313c-3.203125 3.226563-3.179687 8.441406.046875 11.640625 1.605469 1.59375 3.703125 2.390625 5.800781 2.390625 2.117188 0 4.234376-.8125 5.84375-2.4375l133.746094-134.785156 7.117188.300781h38.320312c2.195313 0 4.300782-.875 5.847656-2.433594l3.925782-3.960937c25.992187 38.484375 41.234375 85.003906 41.234375 135.082031 0 132.078125-105.886719 239.53125-236.035157 239.53125zm0 0" fill="#434c54"/></svg>