<svg height="511pt" viewBox="-16 1 511 511.99998" width="511pt" xmlns="http://www.w3.org/2000/svg"><path d="m365.136719 63.734375v374.042969c0 30.589844-24.792969 55.386718-55.382813 55.386718h-183.597656c-30.585938 0-55.382812-24.796874-55.382812-55.386718v-374.042969c0-30.589844 24.796874-55.382813 55.382812-55.382813h183.597656c30.589844 0 55.382813 24.792969 55.382813 55.382813zm0 0" fill="#e1eaf8"/><path d="m365.136719 347.730469v90.046875c0 30.589844-24.792969 55.386718-55.382813 55.386718h-60.199218c-1.574219-4.199218-2.652344-8.652343-3.140626-13.316406l-11.132812-105.691406c-.703125-6.742188 1.46875-13.46875 6.011719-18.511719 4.535156-5.035156 10.992187-7.914062 17.773437-7.914062zm0 0" fill="#e1eaf8"/><path d="m70.773438 84.378906h294.367187v326.722656h-294.367187zm0 0" fill="#fff"/><path d="m365.136719 122.378906v131.3125c-2.683594-1.402344-5.261719-3-7.6875-4.78125-9.671875 7.121094-21.609375 11.324219-34.523438 11.324219h-.671875c-12.902344 0-24.839844-4.207031-34.523437-11.324219-9.675781 7.121094-21.609375 11.324219-34.523438 11.324219h-.675781c-12.902344 0-24.835938-4.207031-34.519531-11.324219-9.675781 7.121094-21.613281 11.324219-34.523438 11.324219h-.675781c-12.902344 0-24.839844-4.207031-34.523438-11.324219-9.675781 7.121094-21.609374 11.324219-34.523437 11.324219h-.671875c-12.90625 0-24.839844-4.207031-34.523438-11.324219-2.457031 1.804688-5.066406 3.421875-7.796874 4.835938v-131.367188zm0 0" fill="#e1eaf8"/><path d="m331.195312 347.730469h-72.128906c-6.78125 0-13.238281 2.878906-17.773437 7.914062-4.542969 5.042969-6.714844 11.773438-6.011719 18.511719l.96875 9.160156h-165.476562v27.785156h168.402343v.003907h125.964844v-87.3125c-14.839844 1.882812-27.410156 11.125-33.945313 23.9375zm0 0" fill="#e1eaf8"/><path d="m43.707031 236.324219c-19.253906 0-34.859375-15.605469-34.859375-34.859375v-55.167969h69.722656v55.167969c0 19.253906-15.609374 34.859375-34.863281 34.859375zm0 0" fill="#76ffd9"/><path d="m183.152344 236.324219c-19.253906 0-34.863282-15.605469-34.863282-34.859375v-55.167969h69.722657v55.167969c0 19.253906-15.609375 34.859375-34.859375 34.859375zm0 0" fill="#76ffd9"/><path d="m322.59375 236.324219c-19.253906 0-34.859375-15.605469-34.859375-34.859375v-55.167969h69.71875v55.167969c0 19.253906-15.605469 34.859375-34.859375 34.859375zm0 0" fill="#76ffd9"/><path d="m113.429688 236.324219c-19.253907 0-34.859376-15.605469-34.859376-34.859375v-55.167969h69.71875v55.167969c0 19.253906-15.605468 34.859375-34.859374 34.859375zm0 0" fill="#5de0bf"/><path d="m252.871094 236.324219c-19.25 0-34.859375-15.605469-34.859375-34.859375v-55.167969h69.722656v55.167969c0 19.253906-15.609375 34.859375-34.863281 34.859375zm0 0" fill="#5de0bf"/><path d="m392.316406 236.324219c-19.253906 0-34.863281-15.605469-34.863281-34.859375v-55.167969h69.722656v55.167969c0 19.253906-15.609375 34.859375-34.859375 34.859375zm0 0" fill="#5de0bf"/><path d="m427.171875 146.292969h-418.328125l39.859375-39.847657 22.144531-22.144531h294.332032zm0 0" fill="#fff"/><path d="m387.324219 106.445312h-338.621094l22.144531-22.144531h294.332032zm0 0" fill="#fff"/><path d="m133.144531 293.363281h49.59375v49.5h-49.59375zm0 0" fill="#76ffd9"/><path d="m367.070312 350.714844 57.25-57.25 21.558594 21.558594-57.25 57.25zm0 0" fill="#fff"/><path d="m471.214844 371.644531-.5625 5.296875-2.5 23.777344-3.578125 33.9375-4.496094 42.683594c-1.574219 14.957031-14.1875 26.3125-29.230469 26.3125h-131.429687c-15.027344 0-27.640625-11.355469-29.214844-26.3125l-11.136719-105.695313zm0 0" fill="#76ffd9"/><path d="m325.527344 503.652344h-26.109375c-15.023438 0-27.640625-11.359375-29.21875-26.316406l-11.132813-105.691407h26.101563l11.140625 105.691407c1.578125 14.957031 14.1875 26.316406 29.21875 26.316406zm0 0" fill="#5de0bf"/><path d="m391.246094 367.84375c0-11.316406-9.171875-20.488281-20.484375-20.488281s-20.484375 9.171875-20.484375 20.488281 9.171875 20.488281 20.484375 20.488281 20.484375-9.171875 20.484375-20.488281zm0 0" fill="#fff"/><g fill="#c1c8d2"><path d="m172.292969 58.582031h91.316406c4.609375 0 8.347656-3.734375 8.347656-8.347656 0-4.609375-3.738281-8.347656-8.347656-8.347656h-91.316406c-4.609375 0-8.347657 3.738281-8.347657 8.347656 0 4.613281 3.738282 8.347656 8.347657 8.347656zm0 0"/><path d="m234.261719 445.105469h-32.617188c-4.613281 0-8.347656 3.734375-8.347656 8.347656 0 4.609375 3.734375 8.347656 8.347656 8.347656h32.617188c4.609375 0 8.347656-3.738281 8.347656-8.347656 0-4.613281-3.738281-8.347656-8.347656-8.347656zm0 0"/><path d="m302.753906 295.226562h-83.882812c-4.609375 0-8.347656 3.734376-8.347656 8.347657 0 4.609375 3.738281 8.347656 8.347656 8.347656h83.882812c4.613282 0 8.347656-3.738281 8.347656-8.347656 0-4.613281-3.738281-8.347657-8.347656-8.347657zm0 0"/><path d="m302.753906 324.304688h-83.882812c-4.609375 0-8.347656 3.738281-8.347656 8.347656s3.738281 8.347656 8.347656 8.347656h83.882812c4.613282 0 8.347656-3.738281 8.347656-8.347656s-3.738281-8.347656-8.347656-8.347656zm0 0"/></g><path d="m477.417969 366.066406c-1.582031-1.757812-3.835938-2.761718-6.203125-2.761718h-61.804688l42.378906-42.378907c3.257813-3.261719 3.257813-8.546875 0-11.804687l-21.558593-21.5625c-1.566407-1.5625-3.691407-2.445313-5.90625-2.445313-2.214844 0-4.335938.882813-5.902344 2.445313l-44.9375 44.941406v-92.152344c5.695313 2.769532 12.085937 4.328125 18.832031 4.328125 23.824219 0 43.207032-19.382812 43.207032-43.210937v-55.167969c0-.09375-.011719-.183594-.015626-.277344-.003906-.097656-.007812-.191406-.015624-.289062-.019532-.351563-.058594-.695313-.125-1.027344-.003907-.015625-.003907-.027344-.007813-.039063-.074219-.367187-.175781-.726562-.292969-1.074218-.023437-.066406-.046875-.132813-.074218-.199219-.121094-.328125-.257813-.644531-.417969-.953125-.011719-.019531-.023438-.042969-.03125-.066406-.175781-.324219-.375-.632813-.585938-.929688-.050781-.066406-.097656-.132812-.148437-.199218-.226563-.296876-.464844-.582032-.726563-.84375 0 0 0-.003907-.003906-.003907l-59.59375-59.59375v-17.066406c0-35.144531-28.59375-63.734375-63.734375-63.734375h-183.597656c-35.140625 0-63.730469 28.589844-63.730469 63.734375v17.183594l-59.480469 59.476562v.003907c-.261718.261718-.5.546874-.726562.839843-.050782.066407-.101563.132813-.148438.203125-.214844.296875-.410156.601563-.585937.929688-.011719.019531-.019531.042968-.03125.066406-.160157.304688-.296875.625-.417969.953125-.027344.066406-.050781.132813-.074219.199219-.117187.347656-.222656.703125-.292969 1.070312-.003906.015625-.003906.027344-.007812.039063-.0625.335937-.105469.679687-.128906 1.027343-.003906.097657-.007813.195313-.011719.292969-.003906.09375-.015625.183594-.015625.277344v55.167969c0 23.828125 19.382812 43.207031 43.207031 43.207031 6.699219 0 13.050781-1.53125 18.714844-4.265625v197.367188c0 35.140624 28.589844 63.734374 63.734375 63.734374h147.132812c6.800782 6.523438 16.023438 10.492188 26.136719 10.492188h131.429688c19.363281 0 35.492187-14.523438 37.523437-33.78125l3.5625-33.835938c.484375-4.585937-2.839844-8.691406-7.425781-9.175781-4.59375-.480469-8.691406 2.84375-9.175781 7.425781l-3.566406 33.835938c-1.132813 10.738281-10.125 18.835938-20.917969 18.835938h-131.433594c-10.792969 0-19.785156-8.097657-20.917969-18.835938l-10.167968-96.46875h76.289062c4.59375 9.839844 14.578125 16.679688 26.136719 16.679688 11.574219 0 21.570312-6.859376 26.15625-16.726563.28125.03125.566406.042969.859375.042969h64.160156l-2.089844 19.84375c-.484375 4.585937 2.84375 8.695312 7.425782 9.179687.300781.03125.59375.046875.886718.046875 4.21875 0 7.839844-3.1875 8.292969-7.476562l3.0625-29.0625c.246094-2.355469-.515625-4.703125-2.097656-6.460938zm-53.09375-60.796875 9.753906 9.75-38.378906 38.378907c-2.34375-4.03125-5.632813-7.445313-9.570313-9.9375zm-144.9375-103.804687c0 14.621094-11.894531 26.511718-26.515625 26.511718-14.617188 0-26.511719-11.894531-26.511719-26.511718v-46.820313h53.027344zm-69.722657 0c0 14.621094-11.894531 26.511718-26.511718 26.511718-14.621094 0-26.511719-11.894531-26.511719-26.511718v-46.820313h53.023437zm-69.722656 0c0 14.621094-11.894531 26.511718-26.511718 26.511718-14.617188 0-26.511719-11.894531-26.511719-26.511718v-46.820313h53.023437zm156.140625-46.820313h53.027344v46.820313c0 14.621094-11.894531 26.511718-26.515625 26.511718-14.617188 0-26.511719-11.894531-26.511719-26.511718zm122.746094 46.820313c0 14.621094-11.894531 26.511718-26.511719 26.511718-14.621094 0-26.511718-11.894531-26.511718-26.511718v-46.820313h53.023437zm-292.675781-184.769532h183.597656c25.9375 0 47.039062 21.101563 47.039062 47.039063v12.21875h-277.671874v-12.21875c0-25.9375 21.101562-47.039063 47.035156-47.039063zm-51.925782 76.027344h287.570313l45.226563 45.226563h-378.023438zm-57.03125 108.742188v-46.820313h53.027344v46.820313c0 14.621094-11.894531 26.511718-26.515625 26.511718-14.617187 0-26.511719-11.890624-26.511719-26.511718zm61.921876 236.308594v-18.332032h176.589843l6.191407 58.777344c.238281 2.269531.683593 4.46875 1.296874 6.59375h-137.042968c-25.933594 0-47.035156-21.101562-47.035156-47.039062zm179.945312-74.46875c-2.367188 0-4.621094 1.003906-6.203125 2.761718-1.585937 1.757813-2.34375 4.105469-2.097656 6.460938l3.183593 30.21875h-174.828124v-175.0625c7.902343 10.320312 20.339843 16.988281 34.3125 16.988281 14.300781 0 26.992187-6.984375 34.859374-17.71875 7.871094 10.734375 20.5625 17.71875 34.863282 17.71875 14.296875 0 26.988281-6.984375 34.859375-17.71875 7.867187 10.734375 20.5625 17.71875 34.859375 17.71875s26.992187-6.984375 34.859375-17.71875c7.871093 10.734375 20.5625 17.71875 34.863281 17.71875 13.902344 0 26.285156-6.605469 34.191406-16.835937v114.796874c-7.589844 4.222657-13.082031 11.773438-14.496094 20.671876zm111.699219 16.679687c-6.691407 0-12.136719-5.449219-12.136719-12.140625 0-6.695312 5.445312-12.144531 12.136719-12.144531 6.691406 0 12.136719 5.449219 12.136719 12.144531s-5.445313 12.140625-12.136719 12.140625zm0 0" fill="#434c54"/><path d="m322.015625 421.339844v32.621094c0 4.609374 3.734375 8.347656 8.347656 8.347656 4.609375 0 8.347657-3.738282 8.347657-8.347656v-32.621094c0-4.609375-3.738282-8.347656-8.347657-8.347656-4.613281 0-8.347656 3.738281-8.347656 8.347656zm0 0" fill="#fff"/><path d="m357.316406 421.339844v32.621094c0 4.609374 3.734375 8.347656 8.347656 8.347656 4.609376 0 8.347657-3.738282 8.347657-8.347656v-32.621094c0-4.609375-3.738281-8.347656-8.347657-8.347656-4.613281 0-8.347656 3.738281-8.347656 8.347656zm0 0" fill="#fff"/><path d="m392.617188 421.339844v32.621094c0 4.609374 3.738281 8.347656 8.347656 8.347656 4.613281 0 8.347656-3.738282 8.347656-8.347656v-32.621094c0-4.609375-3.734375-8.347656-8.347656-8.347656-4.609375 0-8.347656 3.738281-8.347656 8.347656zm0 0" fill="#fff"/></svg>