<?xml version="1.0" encoding="UTF-8"?>
<svg width="48px" height="48px" viewBox="0 0 48 48" version="1.1" xmlns="http://www.w3.org/2000/svg" xmlns:xlink="http://www.w3.org/1999/xlink">
    <!-- Generator: Sketch 50 (54983) - http://www.bohemiancoding.com/sketch -->
    <title>006-agenda</title>
    <desc>Created with Sketch.</desc>
    <defs></defs>
    <g id="Yasna-Team" stroke="none" stroke-width="1" fill="none" fill-rule="evenodd">
        <g id="Desktop-HD-Copy-2" transform="translate(-441.000000, -4377.000000)" fill="#FFFFFF" fill-rule="nonzero">
            <g id="Why-us" transform="translate(0.000000, 3854.000000)">
                <g id="Why-item-Copy-5" transform="translate(164.000000, 507.000000)">
                    <g id="006-agenda" transform="translate(277.000000, 16.000000)">
                        <path d="M28.3125,28.6875 C27.795,28.6875 27.375,29.1075 27.375,29.625 C27.375,30.1425 27.795,30.5625 28.3125,30.5625 C28.83,30.5625 29.25,30.1425 29.25,29.625 C29.25,29.1075 28.83,28.6875 28.3125,28.6875 Z" id="Shape"></path>
                        <path d="M45.1875,17.4375 L44.25,17.4375 L44.25,0.9375 C44.25,0.41971875 43.8302812,0 43.3125,0 C42.0600938,0 8.43009375,0 4.6875,0 C4.16971875,0 3.75,0.41971875 3.75,0.9375 L3.75,6.1875 L2.8125,6.1875 C1.2585,6.1875 0,7.44609375 0,9 C0,10.5508125 1.2616875,11.8125 2.8125,11.8125 L3.75,11.8125 L3.75,15.5625 L2.8125,15.5625 C1.2585,15.5625 0,16.8210938 0,18.375 C0,19.9258125 1.2616875,21.1875 2.8125,21.1875 L3.75,21.1875 L3.75,24.9375 L2.8125,24.9375 C1.2585,24.9375 0,26.1960938 0,27.75 C0,29.3008125 1.2616875,30.5625 2.8125,30.5625 L3.75,30.5625 L3.75,34.3125 L2.8125,34.3125 C1.2585,34.3125 0,35.5710938 0,37.125 C0,38.6758125 1.2616875,39.9375 2.8125,39.9375 L3.75,39.9375 L3.75,47.0625 C3.75,47.5802812 4.16971875,48 4.6875,48 C8.54896875,48 42.056625,48 43.3125,48 C43.8302812,48 44.25,47.5802812 44.25,47.0625 C44.25,46.517625 44.25,29.079 44.25,28.6875 L45.1875,28.6875 C46.7383125,28.6875 48,27.4258125 48,25.875 L48,20.25 C48,18.6991875 46.7383125,17.4375 45.1875,17.4375 Z M40.5,1.875 L42.375,1.875 L42.375,17.4375 L40.5,17.4375 L40.5,1.875 Z M23.625,1.875 L27.375,1.875 L27.375,9.12328125 L26.0200313,8.22 C25.7052188,8.01009375 25.294875,8.01009375 24.9799688,8.22 L23.625,9.12328125 L23.625,1.875 Z M2.8125,9.9375 C2.2955625,9.9375 1.875,9.5169375 1.875,9 C1.875,8.48240625 2.2948125,8.0625 2.8125,8.0625 L6.5625,8.0625 C7.0794375,8.0625 7.5,8.4830625 7.5,9 C7.5,9.51759375 7.0801875,9.9375 6.5625,9.9375 L2.8125,9.9375 Z M2.8125,19.3125 C2.2955625,19.3125 1.875,18.8919375 1.875,18.375 C1.875,17.8574063 2.2948125,17.4375 2.8125,17.4375 L6.5625,17.4375 C7.0794375,17.4375 7.5,17.8580625 7.5,18.375 C7.5,18.8925937 7.0801875,19.3125 6.5625,19.3125 L2.8125,19.3125 Z M2.8125,28.6875 C2.2955625,28.6875 1.875,28.2669375 1.875,27.75 C1.875,27.2324062 2.2948125,26.8125 2.8125,26.8125 L6.5625,26.8125 C7.0794375,26.8125 7.5,27.2330625 7.5,27.75 C7.5,28.2675938 7.0801875,28.6875 6.5625,28.6875 L2.8125,28.6875 Z M2.8125,38.0625 C2.2955625,38.0625 1.875,37.6419375 1.875,37.125 C1.875,36.6074062 2.2948125,36.1875 2.8125,36.1875 L6.5625,36.1875 C7.0794375,36.1875 7.5,36.6080625 7.5,37.125 C7.5,37.6425938 7.0801875,38.0625 6.5625,38.0625 L2.8125,38.0625 Z M31.125,46.125 L5.625,46.125 L5.625,39.9375 L6.5625,39.9375 C8.1165,39.9375 9.375,38.6789062 9.375,37.125 C9.375,35.5741875 8.1133125,34.3125 6.5625,34.3125 L5.625,34.3125 L5.625,30.5625 L6.5625,30.5625 C8.1165,30.5625 9.375,29.3039062 9.375,27.75 C9.375,26.1991875 8.1133125,24.9375 6.5625,24.9375 L5.625,24.9375 L5.625,21.1875 L6.5625,21.1875 C8.1165,21.1875 9.375,19.9289062 9.375,18.375 C9.375,16.8241875 8.1133125,15.5625 6.5625,15.5625 L5.625,15.5625 L5.625,11.8125 L6.5625,11.8125 C8.1165,11.8125 9.375,10.5539063 9.375,9 C9.375,7.4491875 8.1133125,6.1875 6.5625,6.1875 L5.625,6.1875 L5.625,1.875 L21.75,1.875 L21.75,10.875 C21.75,11.22075 21.9403125,11.5384687 22.2450938,11.7015938 C22.549875,11.864625 22.9198125,11.8469062 23.2075312,11.655 L25.5,10.1267813 L27.7924687,11.6550937 C28.0805625,11.8471875 28.4504062,11.8645312 28.7549062,11.7016875 C29.0596875,11.5385625 29.25,11.2208437 29.25,10.8750938 L29.25,1.875 L31.125,1.875 L31.125,46.125 Z M38.625,46.125 L36.75,46.125 L36.75,41.8125 L38.625,41.8125 L38.625,46.125 Z M42.375,46.125 L40.5,46.125 L40.5,41.8125 L41.4375,41.8125 C41.7661875,41.8125 42.0815625,41.7553125 42.375,41.65125 L42.375,46.125 Z M42.375,39 C42.375,39.5169375 41.9544375,39.9375 41.4375,39.9375 L35.8125,39.9375 C35.2947188,39.9375 34.875,40.3572188 34.875,40.875 L34.875,46.125 L33,46.125 L33,1.875 L34.875,1.875 L34.875,31.5 C34.875,32.0177812 35.2947188,32.4375 35.8125,32.4375 L41.4375,32.4375 C41.9544375,32.4375 42.375,32.8580625 42.375,33.375 L42.375,39 Z M42.375,30.72375 C42.0815625,30.6196875 41.7661875,30.5625 41.4375,30.5625 L40.5,30.5625 L40.5,28.6875 L42.375,28.6875 L42.375,30.72375 Z M46.125,25.875 C46.125,26.3919375 45.7044375,26.8125 45.1875,26.8125 L39.5625,26.8125 C39.0447188,26.8125 38.625,27.2322187 38.625,27.75 L38.625,30.5625 L36.75,30.5625 L36.75,1.875 L38.625,1.875 L38.625,18.375 C38.625,18.8927813 39.0447188,19.3125 39.5625,19.3125 L45.1875,19.3125 C45.7044375,19.3125 46.125,19.7330625 46.125,20.25 L46.125,25.875 Z" id="Shape"></path>
                        <path d="M28.3125,24.9375 L12.1875,24.9375 C11.6697188,24.9375 11.25,25.3572187 11.25,25.875 C11.25,26.3927813 11.6697188,26.8125 12.1875,26.8125 L28.3125,26.8125 C28.8302813,26.8125 29.25,26.3927813 29.25,25.875 C29.25,25.3572187 28.8302813,24.9375 28.3125,24.9375 Z" id="Shape"></path>
                        <path d="M24.5625,28.6875 L12.1875,28.6875 C11.6697188,28.6875 11.25,29.1072187 11.25,29.625 C11.25,30.1427813 11.6697188,30.5625 12.1875,30.5625 L24.5625,30.5625 C25.0802813,30.5625 25.5,30.1427813 25.5,29.625 C25.5,29.1072187 25.0802813,28.6875 24.5625,28.6875 Z" id="Shape"></path>
                        <path d="M28.3125,15.5625 L12.1875,15.5625 C11.6697188,15.5625 11.25,15.9822188 11.25,16.5 L11.25,22.125 C11.25,22.6427812 11.6697188,23.0625 12.1875,23.0625 L28.3125,23.0625 C28.8302813,23.0625 29.25,22.6427812 29.25,22.125 L29.25,16.5 C29.25,15.9822188 28.8302813,15.5625 28.3125,15.5625 Z M27.375,21.1875 L13.125,21.1875 L13.125,17.4375 L27.375,17.4375 L27.375,21.1875 Z" id="Shape"></path>
                    </g>
                </g>
            </g>
        </g>
    </g>
</svg>