<?xml version="1.0" encoding="UTF-8"?>
<svg width="48px" height="48px" viewBox="0 0 48 48" version="1.1" xmlns="http://www.w3.org/2000/svg" xmlns:xlink="http://www.w3.org/1999/xlink">
    <!-- Generator: Sketch 50 (54983) - http://www.bohemiancoding.com/sketch -->
    <title>031-key</title>
    <desc>Created with Sketch.</desc>
    <defs></defs>
    <g id="Yasna-Team" stroke="none" stroke-width="1" fill="none" fill-rule="evenodd">
        <g id="Desktop-HD-Copy-2" transform="translate(-1241.000000, -4377.000000)" fill="#FFFFFF" fill-rule="nonzero">
            <g id="Why-us" transform="translate(0.000000, 3854.000000)">
                <g id="Why-item-Copy-3" transform="translate(964.000000, 507.000000)">
                    <g id="031-key" transform="translate(277.000000, 16.000000)">
                        <path d="M47.5980937,2.32996875 L44.7784687,0.20353125 C44.60325,0.071625 44.389875,0 44.1705,0 L39.2153437,0.0001875 C38.9475937,0.0001875 38.6907187,0.1066875 38.5014375,0.2960625 L21.7429688,17.0544375 C19.9127813,16.3498125 17.9852813,15.9928125 16.0034063,15.9928125 C7.17909375,15.9931875 9.375e-05,23.1722812 9.375e-05,31.9963125 C9.375e-05,40.8207187 7.1791875,48 16.0035938,48 C24.827625,48 32.006625,40.8209063 32.0068125,31.9965 C32.0068125,29.7811875 31.5653438,27.6459375 30.6935625,25.6392188 L33.2025937,23.145375 L37.2090937,23.1165938 C37.4743125,23.1145313 37.7281875,23.0085938 37.9156875,22.821 L39.90375,20.833125 C40.0955625,20.6413125 40.20225,20.3804063 40.1994375,20.109 L40.1534062,15.464625 L45.4088437,14.9953125 C45.644625,14.9744063 45.8655,14.8710938 46.0330313,14.7036563 L47.704125,13.03275 C47.8934062,12.8434688 47.9999062,12.5865 47.9999062,12.3186563 L47.9999062,3.13621875 C47.9998125,2.81925 47.8510312,2.52065625 47.5980937,2.32996875 Z M44.8641563,13.0164375 L39.0447187,13.536 C38.5201875,13.5829688 38.1197812,14.0250938 38.1250312,14.551875 L38.176125,19.7048438 L36.7806562,21.1000313 L32.7759375,21.1288125 C32.5118438,21.130875 32.2589063,21.2361563 32.0715,21.4224375 L28.7700937,24.703875 C28.6585312,24.8147813 28.5741563,24.9511875 28.5240937,25.10025 C28.4398125,25.351875 28.4578125,25.626375 28.57425,25.8645938 C29.5120312,27.7828125 29.9875312,29.8457813 29.9875312,31.9962188 C29.9873437,39.7070625 23.7141562,45.9803438 16.0036875,45.9803438 C8.29284375,45.9803438 2.0195625,39.7070625 2.0195625,31.9959375 C2.0195625,24.2854688 8.29275,18.012375 16.0035,18.012 C17.9397188,18.012 19.8155625,18.40125 21.579,19.1689688 C21.9591563,19.3344375 22.4024062,19.2504375 22.6960313,18.9570938 L39.6335625,2.0195625 L43.8324375,2.019375 L45.9803437,3.6391875 L45.9803437,11.90025 L45.9804375,11.90025 L44.8641563,13.0164375 Z" id="Shape"></path>
                        <path d="M26.9989687,30.9868125 C26.4414375,30.9868125 25.9892812,31.4390625 25.9892812,31.9965 L25.9890937,32.0494687 C25.9890937,32.6070937 26.44125,33.0591562 26.9987812,33.0591562 C27.5563125,33.0591562 28.0084687,32.6070937 28.0084687,32.0494687 L28.0086562,31.9965 C28.0086563,31.438875 27.5565938,30.9868125 26.9989687,30.9868125 Z" id="Shape"></path>
                        <path d="M26.8896562,33.8594062 C26.350875,33.7150312 25.7974688,34.0356562 25.6536562,34.57425 C25.6394062,34.6275 25.624875,34.6805625 25.61025,34.7324062 C25.0086562,36.8500312 23.6944687,38.7384375 21.9099375,40.049625 C21.4605,40.38 21.3639375,41.0117812 21.6940312,41.461125 C21.8919375,41.7304687 22.1980312,41.8730625 22.5084375,41.8730625 C22.716,41.8730625 22.9254375,41.809125 23.1054375,41.6768437 C25.2496875,40.1011875 26.8291875,37.8309375 27.5529375,35.2830937 C27.5705625,35.2208437 27.5878125,35.158125 27.6045,35.0952187 C27.7485,34.5565312 27.4284375,34.0032187 26.8896562,33.8594062 Z" id="Shape"></path>
                        <path d="M31.1525625,15.4198125 L31.1369062,15.4351875 C30.7389375,15.8256562 30.73275,16.4649375 31.1233125,16.863 C31.3210312,17.0645625 31.5824062,17.1655313 31.8441562,17.1655313 C32.0991562,17.1655313 32.354625,17.0695313 32.551125,16.8766875 L32.5667812,16.8613125 C32.9648437,16.4708438 32.9709375,15.8315625 32.580375,15.4335 C32.19,15.03525 31.5505312,15.0291563 31.1525625,15.4198125 Z" id="Shape"></path>
                        <path d="M40.7315625,5.8404375 L33.1315312,13.4404688 C32.7372187,13.8346875 32.7372187,14.4739688 33.1315312,14.8684687 C33.3286875,15.0654375 33.5870625,15.1640625 33.8454375,15.1640625 C34.1038125,15.1640625 34.3621875,15.0654375 34.5593437,14.8684687 L42.1594687,7.2684375 C42.5537812,6.87421875 42.5537812,6.2349375 42.1594687,5.8404375 C41.76525,5.4463125 41.1259687,5.446125 40.7315625,5.8404375 Z" id="Shape"></path>
                        <path d="M10.981125,33.0105 C9.9105,33.0105 8.90390625,33.4274063 8.1466875,34.184625 C6.58396875,35.7475313 6.58396875,38.2904063 8.14678125,39.8535 C8.9038125,40.6105313 9.91040625,41.0274375 10.9810313,41.0274375 C12.05175,41.0274375 13.0581563,40.6105313 13.8154688,39.8533125 C15.3781875,38.2904063 15.3781875,35.7475313 13.815375,34.1844375 C13.0583438,33.4273125 12.0516563,33.0105 10.981125,33.0105 Z M12.3875625,38.4254062 C12.0117188,38.8011562 11.5123125,39.0079687 10.9809375,39.0079687 C10.4495625,39.0079687 9.95015625,38.8010625 9.57440625,38.4254062 C8.799,37.6498125 8.799,36.3878438 9.57440625,35.6123438 C9.95015625,35.2365937 10.4495625,35.0297812 10.9809375,35.0297812 C11.5123125,35.0297812 12.0117187,35.2366875 12.3874687,35.6123438 C13.1629688,36.3880312 13.1629688,37.6499063 12.3875625,38.4254062 Z" id="Shape"></path>
                    </g>
                </g>
            </g>
        </g>
    </g>
</svg>