<?xml version="1.0" encoding="UTF-8"?>
<svg width="48px" height="48px" viewBox="0 0 48 48" version="1.1" xmlns="http://www.w3.org/2000/svg" xmlns:xlink="http://www.w3.org/1999/xlink">
    <!-- Generator: Sketch 50 (54983) - http://www.bohemiancoding.com/sketch -->
    <title>005-puzzle</title>
    <desc>Created with Sketch.</desc>
    <defs></defs>
    <g id="Yasna-Team" stroke="none" stroke-width="1" fill="none" fill-rule="evenodd">
        <g id="Desktop-HD-Copy-2" transform="translate(-441.000000, -4076.000000)" fill="#FFFFFF" fill-rule="nonzero">
            <g id="Why-us" transform="translate(0.000000, 3854.000000)">
                <g id="Why-item-Copy-2" transform="translate(164.000000, 206.000000)">
                    <g id="005-puzzle" transform="translate(277.000000, 16.000000)">
                        <path d="M43.3125,13.40625 C42.795,13.40625 42.375,13.82625 42.375,14.34375 C42.375,14.86125 42.795,15.28125 43.3125,15.28125 C43.83,15.28125 44.25,14.86125 44.25,14.34375 C44.25,13.82625 43.83,13.40625 43.3125,13.40625 Z" id="Shape"></path>
                        <path d="M33.65625,42.375 C33.13875,42.375 32.71875,42.795 32.71875,43.3125 C32.71875,43.83 33.13875,44.25 33.65625,44.25 C34.17375,44.25 34.59375,43.83 34.59375,43.3125 C34.59375,42.795 34.17375,42.375 33.65625,42.375 Z" id="Shape"></path>
                        <path d="M14.34375,3.75 C13.82625,3.75 13.40625,4.17 13.40625,4.6875 C13.40625,5.205 13.82625,5.625 14.34375,5.625 C14.86125,5.625 15.28125,5.205 15.28125,4.6875 C15.28125,4.17 14.86125,3.75 14.34375,3.75 Z" id="Shape"></path>
                        <path d="M4.6875,32.71875 C4.17,32.71875 3.75,33.13875 3.75,33.65625 C3.75,34.17375 4.17,34.59375 4.6875,34.59375 C5.205,34.59375 5.625,34.17375 5.625,33.65625 C5.625,33.13875 5.205,32.71875 4.6875,32.71875 Z" id="Shape"></path>
                        <path d="M45.1875,0 L2.8125,0 C1.2616875,0 0,1.2616875 0,2.8125 L0,45.1875 C0,46.7383125 1.2616875,48 2.8125,48 L45.1875,48 C46.7383125,48 48,46.7383125 48,45.1875 L48,2.8125 C48,1.2616875 46.7383125,0 45.1875,0 Z M1.875,2.8125 C1.875,2.2955625 2.2955625,1.875 2.8125,1.875 L23.0625,1.875 L23.0625,9.2203125 C23.0625,9.22359375 23.0629687,9.22678125 23.0629687,9.2300625 C23.0697187,9.94753125 23.8459687,10.3830937 24.4602187,10.0365 C24.4632187,10.0348125 24.4662187,10.0335937 24.4692187,10.0319062 C24.8942812,9.7861875 25.3804688,9.65625 25.875,9.65625 C27.6021563,9.65625 29.0053125,11.2255312 28.6251562,13.0756875 C28.255125,14.873625 26.1533438,15.8799375 24.4695,14.9057812 C23.8521562,14.5480312 23.0625,14.9904375 23.0625,15.7172812 L23.0625,23.0625 L17.0604375,23.0625 C17.1950625,22.3977187 17.1868125,21.7013437 17.0279062,21.0159375 C16.62825,19.2936563 15.1919062,17.896125 13.4534062,17.5382813 C10.4723437,16.9260937 7.78125,19.1815313 7.78125,22.125 C7.78125,22.441125 7.813875,22.7551875 7.87640625,23.0625 L1.875,23.0625 L1.875,2.8125 Z M23.0625,46.125 L2.8125,46.125 C2.2955625,46.125 1.875,45.7044375 1.875,45.1875 L1.875,24.9375 L9.21909375,24.9375 C9.21984375,24.9375 9.2205,24.9375937 9.22125,24.9375937 C9.22565625,24.9375937 9.23015625,24.93675 9.23465625,24.93675 C9.93459375,24.9261562 10.3907812,24.1666875 10.0366875,23.539875 C10.035,23.536875 10.0336875,23.5336875 10.032,23.5306875 C9.7861875,23.1057188 9.65625,22.619625 9.65625,22.125 C9.65625,20.3953125 11.228625,18.9950625 13.0757812,19.3748438 C14.0938125,19.584375 14.9680312,20.4334688 15.2014688,21.4395 C15.4175625,22.37175 15.1599375,23.0911875 14.9057812,23.5305 C14.5449375,24.1551562 14.9975625,24.93 15.7069688,24.9369375 C15.7104375,24.9369375 15.7138125,24.9375 15.7172812,24.9375 L23.0625,24.9375 L23.0625,30.9395625 C20.4606563,30.4126875 18.0385312,32.1165937 17.5381875,34.5465937 C16.9258125,37.5279375 19.1819063,40.21875 22.125,40.21875 C22.441125,40.21875 22.7551875,40.186125 23.0625,40.1235937 L23.0625,46.125 Z M46.125,45.1875 C46.125,45.7044375 45.7044375,46.125 45.1875,46.125 L24.9375,46.125 L24.9375,38.7796875 C24.9375,38.7764062 24.9370313,38.7732187 24.9370313,38.7699375 C24.9308438,38.0727187 24.1714688,37.6070625 23.5397813,37.9635 C23.5367813,37.9651875 23.5337813,37.9664062 23.5307813,37.9680937 C23.1057188,38.2138125 22.6195313,38.34375 22.125,38.34375 C20.3978438,38.34375 18.9946875,36.7744687 19.3748438,34.9243125 C19.744875,33.126375 21.8465625,32.1201563 23.5305,33.0942187 C23.5335,33.096 23.5366875,33.0972187 23.5397813,33.099 C24.1588125,33.448875 24.9375,33.0029062 24.9375,32.2828125 L24.9375,24.928125 L30.93825,24.928125 C30.8757188,25.2353437 30.84375,25.5589687 30.84375,25.875 C30.84375,28.82925 33.5457188,31.0718437 36.5161875,30.4617187 C38.2544063,30.1039688 39.69075,28.7063438 40.0904063,26.983875 C40.2493125,26.2985625 40.2575625,25.6022813 40.1229375,24.9375 L46.125,24.9375 L46.125,45.1875 Z M46.125,23.0625 L38.7796875,23.0625 C38.0585625,23.0625 37.6142812,23.8420312 37.9633125,24.4600312 C37.9650937,24.463125 37.9663125,24.4664062 37.9681875,24.4694062 C38.2223437,24.9088125 38.4799687,25.6281562 38.263875,26.5602187 C38.0304375,27.5664375 37.1563125,28.415625 36.1384687,28.6250625 C34.2880312,29.0055 32.71875,27.6019687 32.71875,25.875 C32.71875,25.380375 32.8486875,24.8942812 33.0944062,24.4692187 C33.4549687,23.8456875 33.0045,23.0625 32.2828125,23.0625 L24.9375,23.0625 L24.9375,17.0604375 C27.5393438,17.5873125 29.9614688,15.8834062 30.4618125,13.4533125 C31.0741875,10.4720625 28.8180937,7.78125 25.875,7.78125 C25.558875,7.78125 25.2448125,7.813875 24.9375,7.87640625 L24.9375,1.875 L45.1875,1.875 C45.7044375,1.875 46.125,2.2955625 46.125,2.8125 L46.125,23.0625 Z" id="Shape"></path>
                        <path d="M14.34375,42.375 L6.5625,42.375 C6.0455625,42.375 5.625,41.9544375 5.625,41.4375 L5.625,37.40625 C5.625,36.8884688 5.2051875,36.46875 4.6875,36.46875 C4.1698125,36.46875 3.75,36.8884688 3.75,37.40625 L3.75,41.4375 C3.75,42.9883125 5.0116875,44.25 6.5625,44.25 L14.34375,44.25 C14.8614375,44.25 15.28125,43.8302812 15.28125,43.3125 C15.28125,42.7947188 14.8614375,42.375 14.34375,42.375 Z" id="Shape"></path>
                        <path d="M43.3125,32.71875 C42.7948125,32.71875 42.375,33.1384688 42.375,33.65625 L42.375,41.4375 C42.375,41.9544375 41.9544375,42.375 41.4375,42.375 L37.40625,42.375 C36.8885625,42.375 36.46875,42.7947188 36.46875,43.3125 C36.46875,43.8302812 36.8885625,44.25 37.40625,44.25 L41.4375,44.25 C42.9883125,44.25 44.25,42.9883125 44.25,41.4375 L44.25,33.65625 C44.25,33.1384688 43.8301875,32.71875 43.3125,32.71875 Z" id="Shape"></path>
                        <path d="M41.4375,3.75 L33.65625,3.75 C33.1385625,3.75 32.71875,4.16971875 32.71875,4.6875 C32.71875,5.20528125 33.1385625,5.625 33.65625,5.625 L41.4375,5.625 C41.9544375,5.625 42.375,6.0455625 42.375,6.5625 L42.375,10.59375 C42.375,11.1115312 42.7948125,11.53125 43.3125,11.53125 C43.8301875,11.53125 44.25,11.1115312 44.25,10.59375 L44.25,6.5625 C44.25,5.0116875 42.9883125,3.75 41.4375,3.75 Z" id="Shape"></path>
                        <path d="M10.59375,3.75 L6.5625,3.75 C5.0116875,3.75 3.75,5.0116875 3.75,6.5625 L3.75,14.34375 C3.75,14.8615312 4.1698125,15.28125 4.6875,15.28125 C5.2051875,15.28125 5.625,14.8615312 5.625,14.34375 L5.625,6.5625 C5.625,6.0455625 6.0455625,5.625 6.5625,5.625 L10.59375,5.625 C11.1114375,5.625 11.53125,5.20528125 11.53125,4.6875 C11.53125,4.16971875 11.1114375,3.75 10.59375,3.75 Z" id="Shape"></path>
                    </g>
                </g>
            </g>
        </g>
    </g>
</svg>