<?xml version="1.0" encoding="UTF-8"?>
<svg width="41px" height="48px" viewBox="0 0 41 48" version="1.1" xmlns="http://www.w3.org/2000/svg" xmlns:xlink="http://www.w3.org/1999/xlink">
    <!-- Generator: Sketch 50 (54983) - http://www.bohemiancoding.com/sketch -->
    <title>031-secure-shield</title>
    <desc>Created with Sketch.</desc>
    <defs></defs>
    <g id="Yasna-Team" stroke="none" stroke-width="1" fill="none" fill-rule="evenodd">
        <g id="Desktop-HD-Copy-2" transform="translate(-845.000000, -4076.000000)" fill="#FFFFFF" fill-rule="nonzero">
            <g id="Why-us" transform="translate(0.000000, 3854.000000)">
                <g id="Why-item-Copy" transform="translate(564.000000, 206.000000)">
                    <g id="Group-4" transform="translate(261.000000, 0.000000)">
                        <g id="031-secure-shield" transform="translate(20.000000, 16.000000)">
                            <path d="M40.1945091,8.27237427 C33.6003425,6.46633918 26.9674224,3.65417544 21.0127808,0.139976608 C20.6964817,-0.0466900585 20.3039863,-0.0466900585 19.9877808,0.139976608 C13.8613699,3.7551345 7.58687215,6.41515789 0.805490868,8.27237427 C0.367408676,8.39223392 0.0637465753,8.79026901 0.0637465753,9.24435088 L0.0637465753,19.5410526 C0.0637465753,30.1443743 4.95744292,37.1630409 9.06287215,41.1837193 C13.4826347,45.5126082 18.6310365,47.9065263 20.5002808,47.9065263 C22.3693379,47.9065263 27.5177397,45.5126082 31.9375023,41.1837193 C36.0428379,37.1631345 40.9362534,30.1444678 40.9362534,19.5410526 L40.9362534,9.24425731 C40.9362534,8.79026901 40.6325913,8.39223392 40.1945091,8.27237427 Z M38.9199521,19.5409591 C38.9199521,29.4443977 34.3555662,35.9936374 30.5262785,39.744 C26.1799977,44.0008421 21.5330502,45.8909006 20.5002808,45.8909006 C19.4675114,45.8909006 14.8202831,44.0008421 10.4739087,39.744 C6.64471461,35.9935439 2.08014155,29.4443977 2.08014155,19.5409591 L2.08014155,10.0092632 C8.56506849,8.16879532 14.6044247,5.6002807 20.500468,2.1754386 C26.2492671,5.5094269 32.5899452,8.20566082 38.9199521,10.0088889 L38.9199521,19.5409591 Z" id="Shape"></path>
                            <path d="M11.5640594,9.89651462 C11.3599954,9.37861988 10.7746689,9.12421053 10.2564589,9.3282807 C8.45545434,10.037614 6.60689726,10.6905263 4.76217808,11.2689591 C4.34178767,11.4008889 4.05572374,11.7901287 4.05572374,12.2304561 L4.05572374,16.1220117 C4.05572374,16.6785497 4.50719178,17.129731 5.06387443,17.129731 C5.62055708,17.129731 6.07202511,16.6785497 6.07202511,16.1220117 L6.07202511,12.966924 C7.72690868,12.4317193 9.3800137,11.8397193 10.9955822,11.2033684 C11.5136986,10.9994854 11.7682169,10.4144094 11.5640594,9.89651462 Z" id="Shape"></path>
                            <path d="M13.4791712,10.0876725 C13.6144338,10.0876725 13.7517557,10.0604444 13.8834612,10.0029942 L13.9019954,9.99494737 C14.4120616,9.77150877 14.641774,9.1780117 14.4182397,8.66835088 C14.1945183,8.15850292 13.5973973,7.92785965 13.0878927,8.15111111 L13.071605,8.15812865 C12.561258,8.38091228 12.3307968,8.97394152 12.5536758,9.48388304 C12.7190799,9.86245614 13.0902329,10.0876725 13.4791712,10.0876725 Z" id="Shape"></path>
                            <path d="M32.5118767,32.4943158 C32.0459932,32.1899415 31.421258,32.3208421 31.116379,32.7867135 C30.2856142,34.057731 29.3109749,35.2748538 28.2191393,36.4039298 C27.321258,37.3323041 26.3483037,38.197614 25.3273288,38.9756257 C24.8846598,39.3130292 24.7994772,39.9453567 25.1369315,40.3880234 C25.3354726,40.6480468 25.6356712,40.7848421 25.9393333,40.7848421 C26.1525708,40.7848421 26.3673995,40.7175673 26.5499338,40.5783392 C27.6512237,39.7389474 28.7005616,38.8058012 29.6686484,37.8048187 C30.8491301,36.5843275 31.9040845,35.2669006 32.8043995,33.8891228 C33.1090913,33.4231579 32.9779475,32.7986901 32.5118767,32.4943158 Z" id="Shape"></path>
                            <path d="M22.9860228,40.5560702 L22.9281735,40.5901287 C22.4463767,40.8690526 22.2817215,41.4854737 22.5606712,41.9670643 C22.747605,42.2898713 23.0859954,42.4700819 23.434121,42.4700819 C23.6054224,42.4700819 23.7793447,42.426386 23.9381963,42.3342222 L24.0049384,42.2950175 C24.4854247,42.0137544 24.6468037,41.3964912 24.3654201,40.9162105 C24.0838493,40.436117 23.4662283,40.2750877 22.9860228,40.5560702 Z" id="Shape"></path>
                            <path d="M13.6281941,21.8965146 C13.0091689,21.2776608 12.1858927,20.937076 11.31029,20.937076 C10.4346872,20.937076 9.61131735,21.2777544 8.99201142,21.8965146 C7.71399087,23.174269 7.71399087,25.2533333 8.99201142,26.5309942 L14.9450616,32.4813099 C15.5641804,33.0999766 16.3874566,33.440655 17.263153,33.440655 C18.1388493,33.440655 18.9621256,33.0999766 19.5813379,32.4811228 L32.0087374,20.0589474 C33.2866644,18.7809123 33.2866644,16.7021287 32.0085502,15.4248421 C31.3894315,14.8059883 30.5661553,14.4654035 29.6903653,14.4654035 C28.8146689,14.4654035 27.9913927,14.8060819 27.3721804,15.4248421 L17.2630594,25.5296374 L13.6281941,21.8965146 Z M28.7980068,16.8500585 C29.0362374,16.6119298 29.3532854,16.4808421 29.6904589,16.4808421 C30.0278196,16.4808421 30.3445868,16.6119298 30.5830046,16.8500585 C31.074911,17.3417544 31.074911,18.1421287 30.5828174,18.6340117 L18.155605,31.056 C17.9173744,31.2941287 17.6003265,31.4252164 17.263153,31.4252164 C16.9259795,31.4252164 16.6089315,31.2941287 16.3706073,31.056 L10.4177443,25.1058713 C9.92565068,24.6139883 9.92565068,23.813614 10.4175571,23.3219181 C10.6558813,23.0837895 10.9729292,22.9525146 11.3101963,22.9525146 C11.6474635,22.9525146 11.9643242,23.0836023 12.2025548,23.321731 L16.5501461,27.6675556 C16.7393265,27.8564678 16.9956233,27.9626667 17.2630594,27.9626667 C17.5304954,27.9626667 17.7867922,27.8565614 17.9757854,27.6675556 L28.7980068,16.8500585 Z" id="Shape"></path>
                        </g>
                    </g>
                </g>
            </g>
        </g>
    </g>
</svg>