<?xml version="1.0" encoding="UTF-8"?>
<svg width="43px" height="48px" viewBox="0 0 43 48" version="1.1" xmlns="http://www.w3.org/2000/svg" xmlns:xlink="http://www.w3.org/1999/xlink">
    <!-- Generator: Sketch 50 (54983) - http://www.bohemiancoding.com/sketch -->
    <title>013-support</title>
    <desc>Created with Sketch.</desc>
    <defs></defs>
    <g id="Yasna-Team" stroke="none" stroke-width="1" fill="none" fill-rule="evenodd">
        <g id="Desktop-HD-Copy-2" transform="translate(-844.000000, -4377.000000)" fill="#FFFFFF" fill-rule="nonzero">
            <g id="Why-us" transform="translate(0.000000, 3854.000000)">
                <g id="Why-item-Copy-4" transform="translate(564.000000, 507.000000)">
                    <g id="013-support" transform="translate(280.000000, 16.000000)">
                        <path d="M31.7826087,37.125 C31.2666087,37.125 30.8478261,37.545 30.8478261,38.0625 C30.8478261,38.58 31.2666087,39 31.7826087,39 C32.2986087,39 32.7173913,38.58 32.7173913,38.0625 C32.7173913,37.545 32.2986087,37.125 31.7826087,37.125 Z" id="Shape"></path>
                        <path d="M34.0842304,34.0934063 L29.6412087,32.6084063 L28.0461891,29.409 C29.483137,27.9421875 30.4808304,26.001375 30.8172587,23.9770313 L31.0161804,22.78125 L32.7173913,22.78125 C34.2637087,22.78125 35.5217391,21.5195625 35.5217391,19.96875 L35.5217391,14.0625 C35.5217391,6.3084375 29.231587,0 21.5,0 C13.7485957,0 7.47826087,6.29034375 7.47826087,14.0625 L7.47826087,19.96875 C7.47826087,21.190875 8.25983261,22.233 9.34782609,22.62 L9.34782609,23.71875 C9.34782609,25.2695625 10.6058565,26.53125 12.1521739,26.53125 L12.9731,26.53125 C13.3783283,27.4140937 13.9028348,28.2317813 14.5411043,28.9663125 C14.6734696,29.1189375 14.811537,29.266875 14.9529696,29.4107812 L13.3587913,32.6084063 L8.91567609,34.0935 C3.7496,35.821125 0,41.2754063 0,47.0625 C0,47.5802812 0.418502174,48 0.934782609,48 L42.0652174,48 C42.5814043,48 43,47.5802812 43,47.0625 C43,41.2754063 39.2504935,35.821125 34.0842304,34.0934063 Z M33.6521739,19.96875 C33.6521739,20.4856875 33.2328304,20.90625 32.7173913,20.90625 L31.2907261,20.90625 C31.5283478,19.0603125 31.6867,17.0959688 31.7503587,15.16125 C31.7522283,15.1066875 31.7537239,15.053625 31.7554065,15 L33.6521739,15 L33.6521739,19.96875 Z M10.2826087,20.90625 C9.76716957,20.90625 9.34782609,20.4856875 9.34782609,19.96875 L9.34782609,15 L11.2452478,15 C11.2483326,15.0977813 11.2516043,15.1960313 11.25525,15.2949375 C11.2553435,15.2983125 11.2555304,15.3015937 11.2556239,15.3049687 C11.2556239,15.30525 11.2556239,15.3055312 11.2556239,15.3058125 C11.3210587,17.1875625 11.4773543,19.1009062 11.7095543,20.9061562 L10.2826087,20.9061562 L10.2826087,20.90625 Z M12.1521739,24.65625 C11.6367348,24.65625 11.2173913,24.2356875 11.2173913,23.71875 L11.2173913,22.78125 L11.9837261,22.78125 L12.1826478,23.9774063 C12.2206,24.20475 12.2672457,24.43125 12.3211826,24.65625 L12.1521739,24.65625 Z M11.2189804,13.125 L9.38334783,13.125 C9.85681522,6.84178125 15.0852413,1.875 21.5,1.875 C27.8862478,1.875 33.1376696,6.841125 33.6165587,13.125 L31.781113,13.125 C31.7138087,7.94746875 27.5098109,3.75 22.3367239,3.75 L20.663463,3.75 C15.4904696,3.75 11.2861913,7.94746875 11.2189804,13.125 Z M20.6633696,5.625 L22.3366304,5.625 C26.5252978,5.625 29.9154739,9.06103125 29.9130435,13.2571875 C29.9130435,13.5522187 29.9107065,13.8090937 29.9057522,14.0428125 C29.9057522,14.0458125 29.9056587,14.0489062 29.9056587,14.052 L28.7364326,13.8844687 C25.5600413,13.4295937 22.5608848,11.9256562 20.2914196,9.64959375 C20.1160543,9.4738125 19.8783391,9.375 19.6304348,9.375 C17.1199826,9.375 14.7168435,10.522125 13.1282739,12.460125 C13.5197609,8.64271875 16.737563,5.625 20.6633696,5.625 Z M14.2591739,24.65625 C13.7912217,23.0950313 13.2557783,18.5012812 13.1374348,15.5575313 L14.3955587,13.8750938 C15.5510435,12.3304688 17.3487239,11.37075 19.2610087,11.2605937 C21.777163,13.6620937 25.032263,15.2479687 28.4720761,15.7405313 L29.848263,15.9377813 C29.7562804,17.89575 29.5682957,19.8605625 29.2989848,21.6675938 C29.2988913,21.6681563 29.2987978,21.6688125 29.2987043,21.6694688 C29.2130783,22.2504375 29.145587,22.6243125 28.973213,23.6685938 C28.4781522,26.6465625 26.2625304,29.3395313 23.3376891,30.0729375 C22.1339696,30.3743438 20.8658435,30.37425 19.6627783,30.0729375 C17.8364935,29.6150625 16.1619239,28.34775 15.0812217,26.53125 L16.9868696,26.53125 C17.3727478,27.6224063 18.4117587,28.40625 19.6304348,28.40625 L21.5,28.40625 C23.0494022,28.40625 24.3043478,27.14775 24.3043478,25.59375 C24.3043478,24.0429375 23.0463174,22.78125 21.5,22.78125 L19.6304348,22.78125 C18.38465,22.78125 17.3609696,23.58825 16.9852804,24.65625 L14.2591739,24.65625 Z M19.5518196,31.97025 C20.192987,32.1057188 20.8466804,32.175 21.5,32.175 C22.0114196,32.175 22.5229326,32.1320625 23.02865,32.0488125 L21.3768891,33.8007188 L19.5518196,31.97025 Z M20.09175,35.1636563 L17.1268065,38.3082188 C16.3105543,36.7412813 15.609187,35.1105 15.0339217,33.441 L16.1473413,31.2076875 L20.09175,35.1636563 Z M26.694213,30.8900625 L27.9658913,33.4409062 C27.3896913,35.1132188 26.688137,36.7445625 25.8727261,38.309625 L22.6993261,35.127 L26.694213,30.8900625 Z M18.6956522,25.59375 C18.6956522,25.0761562 19.1142478,24.65625 19.6304348,24.65625 L21.5,24.65625 C22.0154391,24.65625 22.4347826,25.0768125 22.4347826,25.59375 C22.4347826,26.1114375 22.0160935,26.53125 21.5,26.53125 L19.6304348,26.53125 C19.1149957,26.53125 18.6956522,26.1106875 18.6956522,25.59375 Z M1.90695652,46.125 C2.27741087,41.4807188 5.35929565,37.2593438 9.50692609,35.8722188 L13.4418,34.5570938 C14.1627043,36.5563125 15.0557957,38.4994688 16.1024717,40.3452188 C16.1042478,40.3484063 16.1059304,40.3515938 16.1077065,40.3546875 C16.1077065,40.3547813 16.1078,40.3547813 16.1078,40.354875 C16.8725457,41.7038438 17.7332935,43.0220625 18.666487,44.2735313 L19.8164565,46.125 L1.90695652,46.125 Z M21.5,45.2893125 L20.2322478,43.2480938 C20.2180391,43.2252187 20.2028957,43.203 20.1868174,43.1814375 C19.4298304,42.16875 18.7236957,41.1096563 18.0805652,40.025625 L21.4142804,36.4899375 L24.9270065,40.012875 C24.2795761,41.1047813 23.5710109,42.1682812 22.8133696,43.18125 C22.7675652,43.2424688 22.8325326,43.146 21.5,45.2893125 Z M23.1835435,46.125 L24.3334196,44.273625 C25.2707261,43.017375 26.1376435,41.6885625 26.9100543,40.32375 C26.9147283,40.3155 26.9191217,40.3070625 26.9237957,40.2988125 C26.9243565,40.2977813 26.9249174,40.2968438 26.9254783,40.2958125 C27.9588804,38.4676875 28.8426239,36.5414063 29.5582,34.5570938 L33.4929804,35.8722188 C37.6407043,37.2593438 40.7225891,41.4807188 41.0930435,46.125 L23.1835435,46.125 Z" id="Shape"></path>
                        <path d="M38.2836478,42.3310313 C37.6589326,41.0769375 36.7438739,39.9628125 35.6373717,39.109125 C35.2281239,38.7932813 34.6412674,38.8700625 34.3265261,39.2805 C34.0116913,39.6909375 34.08825,40.2795 34.4974043,40.59525 C35.3811478,41.2770938 36.1119609,42.1670625 36.6110413,43.1689688 C36.842213,43.6329375 37.4040174,43.8196875 37.8650522,43.5886875 C38.3268348,43.3573125 38.5142587,42.79425 38.2836478,42.3310313 Z" id="Shape"></path>
                    </g>
                </g>
            </g>
        </g>
    </g>
</svg>