<?xml version="1.0" encoding="UTF-8"?>
<svg width="45px" height="48px" viewBox="0 0 45 48" version="1.1" xmlns="http://www.w3.org/2000/svg" xmlns:xlink="http://www.w3.org/1999/xlink">
    <!-- Generator: Sketch 50 (54983) - http://www.bohemiancoding.com/sketch -->
    <title>031-download</title>
    <desc>Created with Sketch.</desc>
    <defs></defs>
    <g id="Yasna-Team" stroke="none" stroke-width="1" fill="none" fill-rule="evenodd">
        <g id="Desktop-HD-Copy-2" transform="translate(-1243.000000, -4076.000000)" fill="#FFFFFF" fill-rule="nonzero">
            <g id="Why-us" transform="translate(0.000000, 3854.000000)">
                <g id="Why-item" transform="translate(964.000000, 206.000000)">
                    <g id="031-download" transform="translate(279.000000, 16.000000)">
                        <path d="M10.1439375,8.68546875 C9.74953125,8.29115625 9.11034375,8.29125 8.7159375,8.6855625 C6.43771875,10.9640625 4.91465625,13.8413438 4.3115625,17.0061563 C4.20721875,17.5540313 4.56665625,18.0825938 5.11434375,18.1870313 C5.17828125,18.199125 5.24175,18.205125 5.30446875,18.205125 C5.77959375,18.205125 6.20296875,17.8680938 6.2953125,17.3841563 C6.82228125,14.6185313 8.1530625,12.1044375 10.1439375,10.113375 C10.5383437,9.71915625 10.53825,9.07978125 10.1439375,8.68546875 Z" id="Shape"></path>
                        <path d="M37.9895625,28.8132188 C39.328875,26.0843438 40.0335,23.0623125 40.0335,20.0016562 C40.0335937,8.97271875 31.0609687,0 20.0322187,0 C9.00309375,0 0.0305625,8.97271875 0.0305625,20.0016562 C0.0305625,31.0305938 9.0031875,40.0033125 20.0322187,40.0033125 C21.4204687,40.0033125 22.8012187,39.8581875 24.1520625,39.5749687 C24.9106875,44.3435625 29.0510625,48 34.02975,48 C39.5449687,48 44.0320312,43.5129375 44.0320312,37.997625 C44.0318437,33.8881875 41.5407187,30.3503438 37.9895625,28.8132188 Z M25.9294687,32.1370312 C25.9155937,32.1559687 25.9017187,32.1747187 25.8880312,32.1936562 C25.8572812,32.2366875 25.8272812,32.2801875 25.7971875,32.3236875 C25.7824687,32.3451562 25.7671875,32.3665312 25.7525625,32.3881875 C25.7239687,32.4301875 25.6960312,32.4726562 25.6681875,32.5152187 C25.6525312,32.5389375 25.6366875,32.5625625 25.6212187,32.586375 C25.5945,32.627625 25.5685312,32.6695312 25.5422812,32.7113437 C25.5265312,32.7366562 25.5104062,32.7620625 25.4946562,32.7875625 C25.4709375,32.8265625 25.4475937,32.86575 25.42425,32.905125 C23.7128438,33.6220312 21.90075,33.9857812 20.0324063,33.9857812 C19.4747813,33.9857812 19.0227188,34.4378437 19.0227188,34.9954687 C19.0227188,35.553 19.4747813,36.0051562 20.0324063,36.0051562 C21.5138438,36.0051562 22.9644375,35.8041562 24.3675938,35.4084375 C24.3655313,35.4164062 24.3635625,35.4244687 24.3614063,35.4325312 C24.350625,35.473125 24.3399375,35.5139062 24.3297187,35.5547812 C24.3200625,35.5928437 24.3107812,35.6310937 24.3017812,35.6693437 C24.2920313,35.7100312 24.282375,35.7508125 24.2731875,35.7916875 C24.2642812,35.8307812 24.2558438,35.8699687 24.2474063,35.90925 C24.2387813,35.9496562 24.23025,35.99025 24.2220938,36.0308437 C24.214125,36.0710625 24.2065313,36.1111875 24.1989375,36.1515 C24.1913438,36.191625 24.1839375,36.23175 24.1768125,36.2719687 C24.1696875,36.3130312 24.1628438,36.354375 24.1562813,36.395625 C24.1498125,36.4355625 24.14325,36.4754062 24.1373438,36.5153437 C24.1309688,36.5575312 24.1253438,36.5998125 24.1195313,36.6422812 C24.1140938,36.6816562 24.10875,36.7210312 24.1037813,36.7605937 C24.0984375,36.8039062 24.0936563,36.8473125 24.088875,36.8908125 C24.0846563,36.9298125 24.0801563,36.968625 24.0763125,37.0078125 C24.0719063,37.0521562 24.0681563,37.0967812 24.0644062,37.1413125 C24.0612188,37.1798437 24.05775,37.218375 24.0548438,37.257 C24.0514688,37.3025625 24.0488438,37.3482187 24.0460313,37.3939687 C24.043875,37.4319375 24.04125,37.4698125 24.0395625,37.5079687 C24.0390938,37.5169687 24.0383438,37.525875 24.0379688,37.5347812 C22.7280938,37.8329062 21.3841875,37.9838437 20.0323125,37.9838437 C10.1165625,37.9835625 2.04975,29.91675 2.04975,20.0012812 C2.04975,10.0858125 10.1166562,2.019375 20.0322187,2.019375 C29.9474062,2.019375 38.0142187,10.0862812 38.0142187,20.0016562 C38.0142187,22.8569062 37.3339687,25.6745625 36.0406875,28.1982187 C35.9989687,28.1896875 35.9570625,28.1822812 35.9153437,28.1743125 C35.8748437,28.1665312 35.8344375,28.158375 35.79375,28.1510625 C35.78475,28.1494687 35.7756562,28.14825 35.7666562,28.1465625 C35.2022812,28.047375 34.621875,27.9953437 34.0295625,27.9953437 C33.9840937,27.9953437 33.939,27.9964687 33.8937187,27.9970312 C34.7837813,26.4508125 35.4173438,24.75525 35.7523125,22.99725 C35.85675,22.449375 35.4974062,21.9208125 34.9495312,21.816375 C34.4018437,21.7120312 33.8731875,22.0712812 33.7686562,22.6191562 C33.3699375,24.7114687 32.4880312,26.7025312 31.2136875,28.3993125 C31.2087187,28.4008125 31.2039375,28.4022187 31.1990625,28.4037187 C31.1683125,28.4128125 31.1376562,28.4218125 31.1071875,28.4310937 C31.060875,28.44525 31.0148437,28.459875 30.9687187,28.4747812 C30.9379687,28.4847187 30.9072187,28.4944687 30.8766562,28.5047812 C30.8310937,28.5197812 30.7858125,28.5355312 30.7404375,28.551375 C30.7097812,28.5620625 30.679125,28.57275 30.6488437,28.5837187 C30.60375,28.5999375 30.5588437,28.616625 30.514125,28.6335 C30.4838437,28.6449375 30.4536562,28.6562812 30.4235625,28.668 C30.3790312,28.68525 30.3346875,28.7029687 30.2905312,28.7206875 C30.260625,28.7327812 30.2307187,28.7450625 30.201,28.7573437 C30.1569375,28.7757187 30.1130625,28.7942812 30.069375,28.8133125 C30.0398437,28.8260625 30.0104062,28.839 29.9811562,28.8519375 C29.9376562,28.87125 29.8944375,28.8909375 29.8513125,28.9108125 C29.8220625,28.9243125 29.7928125,28.938 29.76375,28.9516875 C29.7208125,28.9719375 29.6781562,28.9925625 29.6355,29.0134687 C29.6067187,29.027625 29.5780312,29.041875 29.5494375,29.0563125 C29.5070625,29.0775937 29.4647812,29.09925 29.4227812,29.121 C29.394375,29.1358125 29.3661562,29.1509062 29.3379375,29.1658125 C29.2959375,29.1882187 29.2542188,29.2107187 29.2125938,29.2336875 C29.1849375,29.2489687 29.157375,29.264625 29.1299063,29.28 C29.0882812,29.3034375 29.0469375,29.3270625 29.0056875,29.3510625 C28.9785938,29.3668125 28.9517813,29.3828437 28.9247813,29.3990625 C28.883625,29.4235312 28.8425625,29.4480937 28.8017813,29.4733125 C28.77525,29.4895312 28.7490938,29.506125 28.7226562,29.5227187 C28.6820625,29.5482187 28.641375,29.574 28.6010625,29.6001562 C28.5752813,29.6168437 28.549875,29.6338125 28.5241875,29.6507812 C28.4837813,29.6775 28.4432812,29.7043125 28.4033438,29.7317812 C28.3786875,29.7486562 28.3542188,29.7659062 28.3296563,29.7829687 C28.28925,29.811 28.2489375,29.8392187 28.2090938,29.8679062 C28.185375,29.884875 28.1619375,29.9022187 28.1384062,29.9194687 C28.0982812,29.9488125 28.0581562,29.97825 28.0182187,30.00825 C27.9955312,30.0254062 27.973125,30.0428437 27.9505313,30.0602812 C27.9104063,30.0910312 27.870375,30.1217812 27.8308125,30.1531875 C27.8094375,30.1701562 27.7883438,30.1875 27.7669688,30.2046562 C27.72675,30.237 27.6867188,30.2693437 27.6470625,30.30225 C27.6270938,30.3188437 27.6075,30.3358125 27.587625,30.3525 C27.5472188,30.386625 27.5067188,30.42075 27.466875,30.4555312 C27.4487813,30.4711875 27.4311563,30.4872187 27.41325,30.5030625 C27.3721875,30.5394375 27.3309375,30.576 27.29025,30.6129375 C27.2747813,30.6271875 27.2595,30.6417187 27.244125,30.6560625 C27.20175,30.6953437 27.1592813,30.7345312 27.1174688,30.7744687 C27.1058437,30.7857187 27.0943125,30.7971562 27.0827813,30.8084062 C27.0377812,30.852 26.9926875,30.8956875 26.9485312,30.9400312 C26.9442187,30.9444375 26.9398125,30.9490312 26.9355,30.9534375 C26.6698125,31.2209062 26.419125,31.5032812 26.1846562,31.7993437 C26.1807187,31.8044062 26.1765937,31.809375 26.1726562,31.81425 C26.1344062,31.8627187 26.0969062,31.91175 26.0596875,31.9609687 C26.0491875,31.9746562 26.0385,31.9883437 26.0280937,32.0020312 C25.9949062,32.0466562 25.9621875,32.0919375 25.9294687,32.1370312 Z M34.02975,45.980625 C29.6278125,45.980625 26.0466563,42.399375 26.0466563,37.997625 C26.0466563,37.8373125 26.0528437,37.6785937 26.0622187,37.5205313 C26.0728125,37.340625 26.090625,37.1625937 26.1130312,36.9860625 C26.611875,33.060375 29.9706563,30.0147188 34.0295625,30.0147188 C34.038375,30.0147188 34.047,30.0150938 34.0557187,30.0151875 C34.1670937,30.0154687 34.2778125,30.0186562 34.38825,30.0235312 C34.426125,30.0252187 34.4639063,30.027375 34.5015937,30.029625 C34.5970313,30.03525 34.6919063,30.0424687 34.7863125,30.051375 C34.812,30.0538125 34.8377812,30.0555938 34.863375,30.0582188 C34.9812187,30.0704062 35.098125,30.0855937 35.2142812,30.1028437 C35.2422187,30.1069688 35.2701562,30.1118437 35.2979062,30.1163437 C35.3965313,30.1320938 35.4945,30.1495312 35.5919063,30.1689375 C35.6149688,30.1734375 35.6380313,30.1778438 35.6610937,30.1825312 C39.2830313,30.9376875 42.0125625,34.154625 42.0125625,37.9974375 C42.0124688,42.399375 38.4313125,45.980625 34.02975,45.980625 Z" id="Shape"></path>
                        <path d="M5.03859375,18.9489375 C4.48096875,18.9489375 4.02890625,19.401 4.02890625,19.958625 L4.02890625,20.00175 C4.02890625,20.5592813 4.48096875,21.0114375 5.03859375,21.0114375 C5.59621875,21.0114375 6.04828125,20.5592813 6.04828125,20.00175 L6.04828125,19.958625 C6.04828125,19.4009062 5.59621875,18.9489375 5.03859375,18.9489375 Z" id="Shape"></path>
                        <path d="M35.0116875,21.0542812 C35.0164687,21.054375 35.0210625,21.054375 35.0258437,21.054375 C35.577,21.054375 36.0276562,20.6113125 36.0351562,20.0585625 L36.0354375,20.00175 C36.0354375,19.444125 35.5832812,18.9920625 35.02575,18.9920625 C34.4682187,18.9920625 34.0160625,19.444125 34.0160625,20.00175 L34.0159687,20.031 C34.0082812,20.5885312 34.4541562,21.0466875 35.0116875,21.0542812 Z" id="Shape"></path>
                        <path d="M29.7473437,19.1845312 C29.5917187,18.8055937 29.2228125,18.5581875 28.8132187,18.5581875 L24.7591875,18.5581875 L24.7591875,10.6737187 C24.7591875,10.1160937 24.307125,9.66403125 23.7495,9.66403125 L16.31475,9.66403125 C15.757125,9.66403125 15.3050625,10.1160937 15.3050625,10.6737187 L15.3050625,18.5581875 L11.2509375,18.5581875 C10.8413437,18.5581875 10.4723437,18.8055937 10.3169062,19.1845312 C10.161375,19.563375 10.2501562,19.99875 10.541625,20.286375 L17.572125,27.2262188 L16.31475,27.2262188 C15.757125,27.2262188 15.3050625,27.678375 15.3050625,28.2359062 C15.3050625,28.7935312 15.757125,29.2455937 16.31475,29.2455937 L23.7493125,29.2455937 C24.3069375,29.2455937 24.759,28.7935312 24.759,28.2359062 C24.759,27.678375 24.3069375,27.2262188 23.7493125,27.2262188 L22.492125,27.2262188 L29.5223437,20.286375 C29.814,19.9986562 29.9027812,19.563375 29.7473437,19.1845312 Z M20.0322187,26.817375 L13.711125,20.5776562 L16.3148437,20.5776562 C16.872375,20.5776562 17.3245312,20.1255 17.3245312,19.5679687 L17.3245312,11.6835 L22.7399062,11.6835 L22.7399062,19.5679687 C22.7399062,20.1255 23.1920625,20.5776562 23.7495937,20.5776562 L26.353125,20.5776562 L20.0322187,26.817375 Z" id="Shape"></path>
                        <path d="M37.685625,34.89975 L32.6948438,39.8907188 L30.3735938,37.5695625 C29.9792813,37.17525 29.34,37.17525 28.9456875,37.5695625 C28.5512813,37.963875 28.551375,38.6031563 28.9456875,38.9974688 L31.9808438,42.0327188 C32.170125,42.222 32.4270938,42.3285 32.69475,42.3285 C32.9625,42.3285 33.219375,42.2220938 33.4086563,42.032625 L39.1133438,36.3276563 C39.5076563,35.9333438 39.5075625,35.2941563 39.1133438,34.89975 C38.719125,34.5054375 38.0798438,34.5054375 37.685625,34.89975 Z" id="Shape"></path>
                    </g>
                </g>
            </g>
        </g>
    </g>
</svg>